HIERARCHY
ROOT Hips
{
	OFFSET -0.001795 -0.223333 0.028219
	CHANNELS 6 Xposition Yposition Zposition Zrotation Yrotation Xrotation 
	JOINT LeftUpLeg
	{
		OFFSET 0.069520 -0.091406 -0.006815
		CHANNELS 3 Zrotation Yrotation Xrotation
		JOINT LeftLeg
		{
			OFFSET 0.034277 -0.375199 -0.004496
			CHANNELS 3 Zrotation Yrotation Xrotation
			JOINT LeftFoot
			{
				OFFSET -0.013596 -0.397961 -0.043693
				CHANNELS 3 Zrotation Yrotation Xrotation
				JOINT LeftToe
				{
					OFFSET 0.026358 -0.055791 0.119288
					CHANNELS 3 Zrotation Yrotation Xrotation
					End Site
					{
						OFFSET 0.000000 0.000000 0.000000
					}
				}
			}
		}
	}
	JOINT RightUpLeg
	{
		OFFSET -0.067670 -0.090522 -0.004320
		CHANNELS 3 Zrotation Yrotation Xrotation
		JOINT RightLeg
		{
			OFFSET -0.038290 -0.382569 -0.008850
			CHANNELS 3 Zrotation Yrotation Xrotation
			JOINT RightFoot
			{
				OFFSET 0.015774 -0.398415 -0.042312
				CHANNELS 3 Zrotation Yrotation Xrotation
				JOINT RightToe
				{
					OFFSET -0.025372 -0.048144 0.123348
					CHANNELS 3 Zrotation Yrotation Xrotation
					End Site
					{
						OFFSET 0.000000 0.000000 0.000000
					}
				}
			}
		}
	}
	JOINT Spine
	{
		OFFSET -0.002533 0.108963 -0.026696
		CHANNELS 3 Zrotation Yrotation Xrotation
		JOINT Spine1
		{
			OFFSET 0.005487 0.135180 0.001092
			CHANNELS 3 Zrotation Yrotation Xrotation
			JOINT Spine2
			{
				OFFSET 0.001457 0.052922 0.025425
				CHANNELS 3 Zrotation Yrotation Xrotation
				JOINT Neck
				{
					OFFSET -0.002778 0.213870 -0.042857
					CHANNELS 3 Zrotation Yrotation Xrotation
					JOINT Head
					{
						OFFSET 0.005152 0.064970 0.051349
						CHANNELS 3 Zrotation Yrotation Xrotation
						End Site
						{
							OFFSET 0.000000 0.000000 0.000000
						}
					}
				}
				JOINT LeftShoulder
				{
					OFFSET 0.078845 0.121749 -0.034090
					CHANNELS 3 Zrotation Yrotation Xrotation
					JOINT LeftArm
					{
						OFFSET 0.090977 0.030469 -0.008868
						CHANNELS 3 Zrotation Yrotation Xrotation
						JOINT LeftForeArm
						{
							OFFSET 0.259612 -0.012772 -0.027456
							CHANNELS 3 Zrotation Yrotation Xrotation
							JOINT LeftHand
							{
								OFFSET 0.249234 0.008986 -0.001171
								CHANNELS 3 Zrotation Yrotation Xrotation
								End Site
								{
									OFFSET 0.000000 0.000000 0.000000
								}
							}
						}
					}
				}
				JOINT RightShoulder
				{
					OFFSET -0.081759 0.118833 -0.038615
					CHANNELS 3 Zrotation Yrotation Xrotation
					JOINT RightArm
					{
						OFFSET -0.096012 0.032551 -0.009143
						CHANNELS 3 Zrotation Yrotation Xrotation
						JOINT RightForeArm
						{
							OFFSET -0.253742 -0.013329 -0.021401
							CHANNELS 3 Zrotation Yrotation Xrotation
							JOINT RightHand
							{
								OFFSET -0.255298 0.007772 -0.005559
								CHANNELS 3 Zrotation Yrotation Xrotation
								End Site
								{
									OFFSET 0.000000 0.000000 0.000000
								}
							}
						}
					}
				}
			}
		}
	}
}
MOTION
Frames: 15
Frame Time: 0.016667
-0.159536 1.582612 0.030130 -6.548568 2.583855 -18.484306 2.567626 -0.642801 -12.453255 -17.111603 3.336555 16.983561 -0.646515 0.385496 -0.056215 0.325094 -0.032605 0.189901 11.448563 8.871870 6.436031 21.109348 -6.065577 45.020580 -0.174829 0.026075 0.116341 0.072238 0.260225 0.053027 4.465475 2.398752 11.553416 -5.916316 5.109896 9.693657 -10.230002 5.977373 8.161955 -4.592945 0.456784 10.607079 11.999027 -6.871897 -9.583961 0.986580 11.602270 -6.802592 -10.811317 -2.869949 -1.570219 43.446667 -20.007170 -7.731044 0.092445 -0.321820 0.690197 0.794326 -2.761873 -4.701620 6.150688 4.680287 -2.319729 -7.082062 6.923985 -0.347780 -0.400098 0.244321 -0.323698 
-0.161087 1.583428 0.030032 -6.436900 2.553235 -18.466497 2.628736 -0.640951 -12.167108 -17.277838 3.260565 16.452961 -0.623134 0.361270 -0.052679 0.329175 -0.021943 0.188075 11.625759 8.663714 6.621767 20.507597 -5.825788 44.947929 -0.176207 0.037369 0.118593 0.068431 0.250536 0.048086 4.242087 2.434052 12.115721 -6.077591 5.185571 9.527125 -10.338363 5.937043 7.690588 -4.605536 0.197104 10.837864 12.726488 -7.272390 -9.544734 1.642845 11.950652 -6.932811 -11.680576 -4.277152 -1.549070 43.571354 -20.612377 -8.049021 0.109730 -0.311815 0.682838 0.926398 -3.272447 -4.630198 7.445030 3.782560 -2.564028 -8.259988 8.206085 -0.503641 -0.385034 0.241649 -0.309882 
-0.162891 1.584601 0.028981 -6.337712 2.417876 -18.367199 2.387673 -0.769141 -11.783619 -16.808804 2.974704 15.581153 -0.597874 0.341984 -0.045163 0.336606 -0.010386 0.182390 11.895297 8.444583 6.677911 19.618019 -5.451431 44.845573 -0.181456 0.041560 0.120532 0.063814 0.249287 0.050308 4.130446 2.249803 12.813165 -6.341510 5.110845 9.366212 -10.591797 5.717437 7.166194 -4.550250 0.315001 10.694882 13.649382 -7.465281 -9.502808 2.140804 12.233712 -6.924524 -12.244494 -5.059723 -1.525820 43.379272 -21.237177 -8.295979 0.124976 -0.288952 0.674843 1.297063 -3.571788 -4.703934 8.010023 3.486611 -2.652901 -8.476348 8.605403 -0.545584 -0.372898 0.231243 -0.293915 
-0.165646 1.587320 0.027265 -6.002626 2.455181 -17.973370 1.834383 -0.983811 -11.526038 -15.971136 2.528754 14.111326 -0.602751 0.340437 -0.036803 0.336285 -0.008456 0.180600 11.654990 8.101241 6.587115 18.879175 -5.168495 44.240204 -0.184101 0.051312 0.135291 0.064663 0.260571 0.042015 3.051892 2.191581 13.253531 -6.533848 4.771447 9.180534 -10.291628 5.312028 6.718891 -4.273476 0.849475 10.492126 14.207470 -6.976998 -9.746916 2.845061 11.944734 -6.652175 -13.332726 -5.224829 -1.703026 43.879097 -20.990297 -8.364495 0.124505 -0.311719 0.688117 1.603163 -3.485494 -4.864434 8.750508 3.673903 -2.785898 -8.287816 8.146102 -0.511701 -0.381603 0.246283 -0.306233 
-0.167123 1.590612 0.025445 -6.138146 2.120839 -17.193476 1.495634 -1.153967 -11.531704 -14.562866 2.010199 12.596170 -0.564200 0.317475 -0.030186 0.355434 0.019825 0.183202 11.821760 7.832906 6.029297 17.854931 -4.734118 43.749580 -0.192897 0.046537 0.137743 0.063975 0.252156 0.061209 2.591154 2.105130 12.956139 -6.259222 4.452549 8.945457 -9.745981 4.985147 6.536089 -4.571469 1.506478 10.368932 14.273899 -6.712031 -9.471840 3.448703 11.540046 -6.184101 -15.225222 -5.342481 -1.930704 43.757050 -21.041569 -8.442200 0.134142 -0.275313 0.666342 1.627102 -3.484644 -5.032462 9.050708 4.006345 -2.802380 -8.178758 7.832633 -0.502845 -0.366619 0.222956 -0.270694 
-0.167389 1.593951 0.024098 -6.371427 1.715281 -16.212042 1.344112 -1.182214 -11.552453 -13.644547 1.596031 10.760131 -0.553557 0.301520 -0.029561 0.378947 0.055993 0.190589 11.912018 7.518050 5.477684 17.113008 -4.432878 43.021950 -0.200891 0.036620 0.141589 0.080178 0.245286 0.068790 2.655632 1.979555 12.242448 -6.059598 4.245433 8.709062 -9.529772 4.797668 6.568608 -4.468900 1.918368 10.300252 13.968842 -6.223287 -9.409180 3.466537 11.571606 -6.341009 -16.185760 -6.324979 -1.868305 43.140266 -21.341555 -8.512464 0.137919 -0.253948 0.652056 1.538267 -4.164848 -5.698076 9.921809 4.595060 -2.894332 -8.263926 7.278342 -0.511822 -0.369502 0.201231 -0.253245 
-0.167765 1.597480 0.021578 -6.428220 0.974121 -15.499296 0.936812 -1.201844 -11.313258 -12.177716 1.160200 8.771048 -0.541815 0.290366 -0.027408 0.385098 0.072718 0.195796 11.659352 7.261486 5.164932 16.596523 -4.206794 42.218369 -0.209730 0.039482 0.143880 0.082221 0.241970 0.075982 2.573596 1.944514 12.080869 -5.894100 4.092123 8.473337 -9.288622 4.620084 6.356588 -4.217100 2.342363 10.327727 13.891860 -5.639298 -9.494050 3.559528 11.211238 -6.158870 -16.793213 -6.551462 -1.894842 42.277451 -21.691759 -8.545035 0.136256 -0.254222 0.648655 1.508747 -4.268039 -5.966607 10.860933 4.783715 -3.082765 -8.835072 6.579336 -0.500989 -0.366672 0.202077 -0.242371 
-0.167738 1.599857 0.018408 -6.892040 -0.265036 -14.707372 1.328187 -0.964429 -11.259574 -11.177370 0.888995 6.940612 -0.568827 0.312146 -0.017006 0.384319 0.065389 0.219003 11.855839 7.198880 4.539358 16.104712 -3.967600 41.788979 -0.207010 0.039457 0.152789 0.090576 0.252497 0.064945 2.552962 2.114229 11.497072 -5.267292 4.029208 8.392828 -8.548087 4.680492 6.497765 -3.776544 2.099114 10.020322 12.838959 -5.162495 -9.682754 2.628662 11.070118 -6.654572 -17.138351 -7.377963 -1.785861 42.147392 -22.057623 -8.732569 0.117987 -0.294817 0.657766 1.382665 -4.553769 -6.347175 11.398166 5.195314 -3.140609 -8.480102 5.291673 -0.409761 -0.384078 0.213121 -0.268936 
-0.167738 1.602421 0.013853 -7.016428 -1.505329 -14.080323 1.266081 -0.892498 -11.216756 -9.875610 0.647913 5.458475 -0.596244 0.324718 -0.036018 0.380901 0.056116 0.246956 11.449362 7.158514 3.991309 15.985287 -3.963041 41.578953 -0.208718 0.038813 0.142284 0.092089 0.233258 0.069335 2.184994 2.446226 11.041884 -4.768640 4.030961 8.394737 -7.787795 4.783552 6.747200 -2.993406 1.860639 10.339728 11.743679 -4.358018 -9.782350 2.318040 10.238366 -6.903628 -17.624683 -8.450515 -1.814095 41.897972 -21.614748 -8.678004 0.099946 -0.314608 0.672528 0.738849 -4.534195 -6.355844 13.447996 5.103255 -3.444934 -9.040357 4.058734 -0.338981 -0.394386 0.223943 -0.279044 
-0.168093 1.604251 0.009338 -7.032182 -2.290404 -13.168996 0.963916 -0.950240 -11.661660 -8.774489 0.446624 4.215530 -0.591520 0.324756 -0.038110 0.405520 0.077245 0.283295 11.117752 6.917726 3.290086 15.538538 -3.851339 41.050232 -0.220738 0.015278 0.131980 0.102497 0.209776 0.094493 1.436988 2.649358 10.414960 -4.232882 3.861250 8.380134 -6.796241 4.627924 7.040365 -2.038058 1.271019 9.802289 10.280865 -3.758888 -9.653845 1.583092 9.638629 -7.427457 -17.063530 -9.797557 -1.697351 40.920959 -21.239902 -8.413903 0.092666 -0.282492 0.658618 0.736511 -4.848399 -6.580435 14.807322 5.148545 -3.579633 -9.770852 4.246374 -0.421145 -0.396556 0.186414 -0.259444 
-0.167897 1.605926 0.003677 -7.171580 -3.178783 -12.647384 0.967041 -0.922395 -11.908892 -7.793193 0.286271 3.119777 -0.577536 0.297129 -0.039632 0.452639 0.135876 0.330994 10.758710 6.621087 2.877956 15.536983 -3.949389 40.555130 -0.244916 0.003562 0.132633 0.125324 0.175011 0.115623 1.386160 2.668587 9.904191 -3.783525 3.787306 8.664775 -6.183028 4.540397 7.717748 -1.120352 1.032352 9.925644 8.940594 -2.772691 -9.750923 0.745054 8.419509 -7.993518 -16.237057 -11.405189 -1.721316 39.923317 -20.612867 -8.124463 0.100576 -0.256890 0.647661 0.813248 -4.988221 -6.677959 16.553080 5.027795 -3.795870 -11.128160 5.261421 -0.631432 -0.398122 0.151377 -0.228331 
-0.167417 1.607293 -0.003169 -7.558708 -4.539864 -12.112906 1.386975 -0.769382 -12.272948 -6.737583 0.165605 2.225166 -0.576300 0.265689 -0.056850 0.509184 0.216077 0.371496 11.096457 6.453204 2.496656 14.883972 -3.657289 40.090054 -0.270425 -0.000597 0.123822 0.166345 0.140374 0.129843 1.571359 2.641582 9.193312 -3.330585 3.747882 9.214892 -5.608980 4.529363 8.885200 -0.731368 1.462196 9.633437 8.470182 -1.802790 -10.920446 0.051031 7.202787 -8.527828 -15.546686 -12.708365 -1.861073 39.913399 -20.185949 -8.141868 0.112741 -0.227957 0.639310 2.036472 -4.811833 -7.356366 16.969507 5.912110 -3.819465 -11.867729 5.299818 -0.755479 -0.403036 0.124151 -0.197492 
-0.165537 1.607645 -0.010421 -7.925178 -5.998769 -11.598991 1.845736 -0.696072 -12.929962 -5.726211 0.092250 2.030888 -0.569470 0.269086 -0.064483 0.529535 0.244756 0.386711 11.167949 6.396535 1.932726 14.707852 -3.614619 39.896099 -0.281741 -0.023981 0.115069 0.179399 0.131774 0.161120 1.726923 2.839438 8.667390 -2.650086 3.818988 9.649557 -4.748201 4.631983 9.787368 -0.131880 1.360343 9.359412 7.636412 -1.246999 -11.012045 -1.206931 5.552031 -9.087198 -14.850809 -14.288842 -1.986183 40.316353 -20.254745 -8.431984 0.094950 -0.196905 0.620114 3.140409 -4.329516 -7.363596 16.994743 6.043010 -3.810810 -12.448504 6.366045 -0.970701 -0.409567 0.097504 -0.171583 
-0.163521 1.608887 -0.017860 -8.061885 -7.845345 -11.192497 2.414356 -0.553609 -13.384150 -4.966199 0.047758 1.862995 -0.564971 0.259399 -0.069010 0.559372 0.295034 0.402097 10.879979 6.500432 1.349209 14.677989 -3.608514 39.977642 -0.297743 -0.033641 0.114398 0.203599 0.126196 0.178321 2.030623 3.112092 8.190439 -2.180508 4.059436 10.116151 -4.206339 4.850182 10.759787 0.209076 1.335603 9.352204 7.140994 -0.794189 -11.571316 -2.253699 3.974662 -9.873274 -14.183203 -16.453354 -2.139265 40.883957 -20.160650 -8.718738 0.085774 -0.183659 0.604347 4.736768 -3.786916 -7.713704 17.506262 6.563680 -3.926220 -13.609794 7.310733 -1.246494 -0.419190 0.083070 -0.148184 
-0.160862 1.609526 -0.026833 -8.046998 -9.908904 -10.881722 3.178403 -0.502334 -14.330916 -4.741286 0.060714 2.819452 -0.555648 0.238704 -0.085571 0.582981 0.340153 0.427670 10.591507 6.828996 0.462272 14.245204 -3.450773 40.673283 -0.309660 -0.039848 0.105944 0.222041 0.096309 0.195670 2.300500 3.250377 8.068968 -1.867627 4.212889 10.539503 -3.831827 4.921741 11.586883 0.605016 1.225105 9.274499 5.971914 -0.082918 -12.144478 -3.228095 2.257882 -10.338022 -12.876457 -17.771721 -2.434823 41.225170 -19.998362 -8.844715 0.078872 -0.166713 0.585088 5.875173 -2.771969 -7.843284 18.682720 7.382069 -4.064976 -14.685915 9.481850 -1.764936 -0.417760 0.068578 -0.117976 
